<?xml version="1.0" encoding="UTF-8"?>
<svg width="114px" height="88px" viewBox="0 0 114 88" version="1.1" xmlns="http://www.w3.org/2000/svg" xmlns:xlink="http://www.w3.org/1999/xlink">
    <!-- Generator: Sketch 49 (51002) - http://www.bohemiancoding.com/sketch -->
    <title>route</title>
    <desc>Created with Sketch.</desc>
    <defs></defs>
    <g id="Page-1" stroke="none" stroke-width="1" fill="none" fill-rule="evenodd">
        <g id="route" transform="translate(57.000000, 44.500000) scale(-1, 1) translate(-57.000000, -44.500000) " fill-rule="nonzero">
            <path d="M93.1118644,88 C92.3620339,88 91.7559322,87.3938983 91.7559322,86.6440678 C91.7559322,85.8942373 92.3620339,85.2881356 93.1118644,85.2881356 L95.7288136,85.2881356 C96.4786441,85.2881356 97.1322034,85.8942373 97.1322034,86.6427119 C97.1322034,87.3925424 96.5735593,87.9986441 95.8237288,87.9986441 L95.8237288,86.6427119 L95.7844068,87.9986441 L93.1118644,88 Z M87.6881356,88 L84.9762712,88 C84.2264407,88 83.620339,87.3938983 83.620339,86.6440678 C83.620339,85.8942373 84.2264407,85.2881356 84.9762712,85.2881356 L87.6881356,85.2881356 C88.4379661,85.2881356 89.0440678,85.8942373 89.0440678,86.6440678 C89.0440678,87.3938983 88.4379661,88 87.6881356,88 Z M79.5525424,88 L76.840678,88 C76.0908475,88 75.4847458,87.3938983 75.4847458,86.6440678 C75.4847458,85.8942373 76.0908475,85.2881356 76.840678,85.2881356 L79.5525424,85.2881356 C80.3023729,85.2881356 80.9084746,85.8942373 80.9084746,86.6440678 C80.9084746,87.3938983 80.3023729,88 79.5525424,88 Z M71.4169492,88 L68.7050847,88 C67.9552542,88 67.3491525,87.3938983 67.3491525,86.6440678 C67.3491525,85.8942373 67.9552542,85.2881356 68.7050847,85.2881356 L71.4169492,85.2881356 C72.1667797,85.2881356 72.7728814,85.8942373 72.7728814,86.6440678 C72.7728814,87.3938983 72.1667797,88 71.4169492,88 Z M63.2813559,88 L60.5694915,88 C59.819661,88 59.2135593,87.3938983 59.2135593,86.6440678 C59.2135593,85.8942373 59.819661,85.2881356 60.5694915,85.2881356 L63.2813559,85.2881356 C64.0311864,85.2881356 64.6372881,85.8942373 64.6372881,86.6440678 C64.6372881,87.3938983 64.0311864,88 63.2813559,88 Z M55.1457627,88.0018653 L52.4338983,88.0018653 C51.6840678,88.0018653 51.0779661,87.3957636 51.0779661,86.6459331 C51.0779661,85.8961026 51.6840678,85.2900009 52.4338983,85.2900009 L55.1457627,85.2900009 C55.8955932,85.2900009 56.5016949,85.8961026 56.5016949,86.6459331 C56.5016949,87.3957636 55.8955932,88.0018653 55.1457627,88.0018653 Z M47.0140667,88.0018653 L44.3022023,88.0018653 C43.5523718,88.0018653 42.9462701,87.3957636 42.9462701,86.6459331 C42.9462701,85.8961026 43.5523718,85.2900009 44.3022023,85.2900009 L47.0140667,85.2900009 C47.7638972,85.2900009 48.3699989,85.8961026 48.3699989,86.6459331 C48.3699989,87.3957636 47.7638972,88.0018653 47.0140667,88.0018653 Z M38.8840657,88.0018653 L36.1722013,88.0018653 C35.4223707,88.0018653 34.8162691,87.3957636 34.8162691,86.6459331 C34.8162691,85.8961026 35.4223707,85.2900009 36.1722013,85.2900009 L38.8840657,85.2900009 C39.6338962,85.2900009 40.2399979,85.8961026 40.2399979,86.6459331 C40.2399979,87.3957636 39.6338962,88.0018653 38.8840657,88.0018653 Z M30.7540684,88.0018653 L28.042204,88.0018653 C27.2923735,88.0018653 26.6862718,87.3957636 26.6862718,86.6459331 C26.6862718,85.8961026 27.2923735,85.2900009 28.042204,85.2900009 L30.7540684,85.2900009 C31.5038989,85.2900009 32.1100006,85.8961026 32.1100006,86.6459331 C32.1100006,87.3957636 31.5038989,88.0018653 30.7540684,88.0018653 Z M100.524746,85.6705085 C100.231864,85.6705085 99.9362712,85.5755932 99.6881356,85.380339 C99.0983051,84.9166102 98.9979661,84.0637288 99.460339,83.4766102 C99.9010169,82.9166102 100.20339,82.280678 100.359322,81.5891525 C100.52339,80.8583051 101.248814,80.4 101.979661,80.5640678 C102.710508,80.7281356 103.168814,81.4535593 103.004746,82.1844068 C102.76339,83.2583051 102.275254,84.2847458 101.591864,85.1511864 C101.324746,85.4928814 100.927458,85.6705085 100.524746,85.6705085 Z M100.526102,78.1274576 C100.12339,78.1274576 99.7261017,77.9498305 99.4589831,77.6094915 C99.0250847,77.0576271 98.4637288,76.600678 97.8359322,76.2888136 C97.1661017,75.9552542 96.8922034,75.1416949 97.2257627,74.4705085 C97.559322,73.800678 98.3701695,73.5254237 99.0440678,73.860339 C100.029831,74.3498305 100.909831,75.0671186 101.591864,75.9322034 C102.054237,76.520678 101.953898,77.3735593 101.364068,77.8359322 C101.115932,78.0311864 100.818983,78.1274576 100.526102,78.1274576 Z M93.1132203,75.7966102 L90.4013559,75.7966102 C89.6515254,75.7966102 89.0454237,75.1905085 89.0454237,74.440678 C89.0454237,73.6908475 89.6515254,73.0847458 90.4013559,73.0847458 L93.1132203,73.0847458 C93.8630508,73.0847458 94.4691525,73.6908475 94.4691525,74.440678 C94.4691525,75.1905085 93.8630508,75.7966102 93.1132203,75.7966102 Z M84.9776271,75.7966102 L82.2657627,75.7966102 C81.5159322,75.7966102 80.9098305,75.1905085 80.9098305,74.440678 C80.9098305,73.6908475 81.5159322,73.0847458 82.2657627,73.0847458 L84.9776271,73.0847458 C85.7274576,73.0847458 86.3335593,73.6908475 86.3335593,74.440678 C86.3335593,75.1905085 85.7274576,75.7966102 84.9776271,75.7966102 Z M76.7540684,75.7918662 L74.042204,75.7918662 C73.2923735,75.7918662 72.6862718,75.1857645 72.6862718,74.435934 C72.6862718,73.6861035 73.2923735,73.0800018 74.042204,73.0800018 L76.7540684,73.0800018 C77.5038989,73.0800018 78.1100006,73.6861035 78.1100006,74.435934 C78.1100006,75.1857645 77.5038989,75.7918662 76.7540684,75.7918662 Z M60.1797978,75.6109841 C59.9913232,75.6109841 59.8001368,75.5716621 59.617086,75.4875943 C58.6191199,75.0320011 57.716069,74.3431875 57.0042046,73.4984417 C56.5228487,72.9248824 56.596069,72.0692892 57.1696283,71.5879333 C57.7431877,71.1065773 58.5974249,71.1797977 59.0801368,71.753357 C59.5330182,72.2916621 60.1092893,72.7309841 60.7452216,73.0225095 C61.4258995,73.333018 61.7255605,74.1370858 61.4136961,74.8191197 C61.1858995,75.3167468 60.6950521,75.6109841 60.1797978,75.6109841 Z M57.4554914,68.5423729 C57.3700677,68.5423729 57.284644,68.5342373 57.1992203,68.5179661 C56.4629491,68.3769492 55.9829491,67.6650847 56.1226101,66.9301695 C56.3327796,65.8332203 56.7775253,64.820339 57.4419321,63.9172881 C57.8866779,63.3138983 58.7341355,63.1864407 59.3375253,63.6284746 C59.9409152,64.0732203 60.0697287,64.9220339 59.6263389,65.5240678 C59.2019321,66.0989831 58.9198982,66.7430508 58.7870169,67.44 C58.6609152,68.0908475 58.0927796,68.5423729 57.4554914,68.5423729 Z M71.0308459,63.5986451 C70.3081341,63.5986451 69.7061002,63.0277977 69.6776256,62.2983062 C69.6477951,61.5498316 70.2281341,60.9179672 70.9766086,60.8881367 C71.0918629,60.8827129 71.2071171,60.8800011 71.3237273,60.8800011 L73.7440663,60.8800011 C74.4938968,60.8800011 75.0999985,61.4861028 75.0999985,62.2359333 C75.0999985,62.9857638 74.4938968,63.5918655 73.7440663,63.5918655 L71.0877951,63.5972892 C71.068812,63.5986451 71.049829,63.5986451 71.0308459,63.5986451 Z M68.444067,75.7918662 L65.7322026,75.7918662 C64.9823721,75.7918662 64.3762704,75.1857645 64.3762704,74.435934 C64.3762704,73.6861035 64.9823721,73.0800018 65.7322026,73.0800018 L68.444067,73.0800018 C69.1938975,73.0800018 69.7999992,73.6861035 69.7999992,74.435934 C69.7999992,75.1857645 69.1938975,75.7918662 68.444067,75.7918662 Z M63.0408481,63.5986451 C62.3181362,63.5986451 61.7161023,63.0277977 61.6876277,62.2983062 C61.6577972,61.5498316 62.2381362,60.9179672 62.9866108,60.8881367 C63.101865,60.8827129 63.2171193,60.8800011 63.3337294,60.8800011 L65.7540684,60.8800011 C66.5038989,60.8800011 67.1100006,61.4861028 67.1100006,62.2359333 C67.1100006,62.9857638 66.5038989,63.5918655 65.7540684,63.5918655 L63.0977972,63.5972892 C63.0788142,63.5986451 63.0598311,63.5986451 63.0408481,63.5986451 Z M79.0405925,63.5986451 C78.3178806,63.5986451 77.7158467,63.0277977 77.6873721,62.2983062 C77.6575416,61.5498316 78.2378806,60.9179672 78.9863552,60.8881367 C79.1016094,60.8827129 79.2168637,60.8800011 79.3334738,60.8800011 L81.7538128,60.8800011 C82.5036433,60.8800011 83.109745,61.4861028 83.109745,62.2359333 C83.109745,62.9857638 82.5036433,63.5918655 81.7538128,63.5918655 L79.0975416,63.5972892 C79.0785586,63.5986451 79.0595755,63.5986451 79.0405925,63.5986451 Z M103.864407,63.5932203 L103.572881,63.5932203 C102.823051,63.5932203 102.216949,62.9871186 102.216949,62.2372881 C102.216949,61.4874576 102.823051,60.8813559 103.572881,60.8813559 L103.864407,60.8813559 C104.500339,60.8813559 105.115932,60.7579661 105.697627,60.5138983 C106.382373,60.2223729 107.182373,60.5477966 107.472542,61.239322 C107.762712,61.9294915 107.438644,62.7240678 106.747119,63.0142373 C105.831864,63.3979661 104.862373,63.5932203 103.864407,63.5932203 Z M98.1491525,63.5932203 L95.4372881,63.5932203 C94.6874576,63.5932203 94.0813559,62.9871186 94.0813559,62.2372881 C94.0813559,61.4874576 94.6874576,60.8813559 95.4372881,60.8813559 L98.1491525,60.8813559 C98.8989831,60.8813559 99.5050847,61.4874576 99.5050847,62.2372881 C99.5050847,62.9871186 98.8989831,63.5932203 98.1491525,63.5932203 Z M90.0135593,63.5932203 L87.3016949,63.5932203 C86.5518644,63.5932203 85.9457627,62.9871186 85.9457627,62.2372881 C85.9457627,61.4874576 86.5518644,60.8813559 87.3016949,60.8813559 L90.0135593,60.8813559 C90.7633898,60.8813559 91.3694915,61.4874576 91.3694915,62.2372881 C91.3694915,62.9871186 90.7633898,63.5932203 90.0135593,63.5932203 Z M109.719322,59.2135593 C109.59322,59.2135593 109.464407,59.1959322 109.338305,59.159322 C108.619661,58.9491525 108.207458,58.1952542 108.417627,57.4766102 C108.545085,57.0427119 108.610169,56.5925424 108.610169,56.1369492 C108.612881,55.8766102 108.591186,55.6298305 108.55322,55.3884746 C108.433898,54.6494915 108.936949,53.9525424 109.677288,53.8345763 C110.413559,53.7125424 111.111864,54.2183051 111.231186,54.9586441 C111.294915,55.3559322 111.324746,55.7559322 111.322034,56.1464407 C111.322034,56.8501695 111.221695,57.5566102 111.021017,58.2386441 C110.847458,58.8298305 110.306441,59.2135593 109.719322,59.2135593 Z M106.915254,52.2088136 C106.684746,52.2088136 106.450169,52.1505085 106.235932,52.0257627 C105.621695,51.6691525 104.951864,51.460339 104.242712,51.4047458 C103.495593,51.3464407 102.938305,50.6942373 102.99661,49.9471186 C103.054915,49.1986441 103.709831,48.6467797 104.454237,48.7010169 C105.570169,48.7877966 106.629153,49.1186441 107.595932,49.68 C108.244068,50.0555932 108.465085,50.8867797 108.088136,51.5335593 C107.838644,51.9661017 107.383051,52.2088136 106.915254,52.2088136 Z M98.9247458,51.3898305 L96.2128814,51.3898305 C95.4630508,51.3898305 94.8569492,50.7837288 94.8569492,50.0338983 C94.8569492,49.2840678 95.4630508,48.6779661 96.2128814,48.6779661 L98.9247458,48.6779661 C99.6745763,48.6779661 100.280678,49.2840678 100.280678,50.0338983 C100.280678,50.7837288 99.6745763,51.3898305 98.9247458,51.3898305 Z M90.7891525,51.3898305 L88.0772881,51.3898305 C87.3274576,51.3898305 86.7213559,50.7837288 86.7213559,50.0338983 C86.7213559,49.2840678 87.3274576,48.6779661 88.0772881,48.6779661 L90.7891525,48.6779661 C91.5389831,48.6779661 92.1450847,49.2840678 92.1450847,50.0338983 C92.1450847,50.7837288 91.5389831,51.3898305 90.7891525,51.3898305 Z M82.6535593,51.3898305 L79.9416949,51.3898305 C79.1918644,51.3898305 78.5857627,50.7837288 78.5857627,50.0338983 C78.5857627,49.2840678 79.1918644,48.6779661 79.9416949,48.6779661 L82.6535593,48.6779661 C83.4033898,48.6779661 84.0094915,49.2840678 84.0094915,50.0338983 C84.0094915,50.7837288 83.4033898,51.3898305 82.6535593,51.3898305 Z M74.5179661,51.3898305 L74.0338983,51.3898305 C73.1145763,51.3884746 72.2210169,51.2230508 71.3722034,50.900339 C70.6725424,50.6332203 70.3227119,49.8494915 70.5884746,49.1498305 C70.8569492,48.4488136 71.6447458,48.1016949 72.3389831,48.3661017 C72.8786441,48.5722034 73.4494915,48.6766102 74.0366102,48.6779661 L74.5179661,48.6779661 C75.2677966,48.6779661 75.8738983,49.2840678 75.8738983,50.0338983 C75.8738983,50.7837288 75.2677966,51.3898305 74.5179661,51.3898305 Z M68.2359322,47.1932203 C67.6664407,47.1932203 67.1349153,46.8311864 66.9477966,46.260339 C66.7010169,45.5118644 66.5776271,44.7281356 66.5776271,43.9308475 C66.5789831,43.6081356 66.599322,43.2949153 66.6372881,42.9898305 C66.7294915,42.2494915 67.3857627,41.7274576 68.1518644,41.8142373 C68.8949153,41.9064407 69.4223729,42.5857627 69.3274576,43.3288136 C69.3016949,43.5281356 69.2908475,43.7328814 69.2894915,43.9376271 C69.2894915,44.439322 69.3694915,44.9369492 69.5254237,45.4128814 C69.7586441,46.1233898 69.3722034,46.8908475 68.660339,47.1254237 C68.519322,47.1728814 68.3755932,47.1932203 68.2359322,47.1932203 Z M70.8176271,40.1030508 C70.3647458,40.1030508 69.9227119,39.8766102 69.6650847,39.4644068 C69.2691525,38.8284746 69.4630508,37.9918644 70.0976271,37.5959322 C71.0467797,37.0033898 72.0935593,36.6427119 73.2081356,36.519322 C73.9579661,36.4420339 74.6223729,36.9749153 74.7050847,37.719322 C74.7877966,38.4637288 74.2494915,39.1335593 73.5050847,39.2162712 C72.7986441,39.2949153 72.1342373,39.5240678 71.5335593,39.8983051 C71.3098305,40.0366102 71.0630508,40.1030508 70.8176271,40.1030508 Z M89.6271186,39.1864407 L86.9152542,39.1864407 C86.1654237,39.1864407 85.559322,38.580339 85.559322,37.8305085 C85.559322,37.080678 86.1654237,36.4745763 86.9152542,36.4745763 L89.6271186,36.4745763 C90.3769492,36.4745763 90.9830508,37.080678 90.9830508,37.8305085 C90.9830508,38.580339 90.3769492,39.1864407 89.6271186,39.1864407 Z M81.4915254,39.1864407 L78.779661,39.1864407 C78.0298305,39.1864407 77.4237288,38.580339 77.4237288,37.8305085 C77.4237288,37.080678 78.0298305,36.4745763 78.779661,36.4745763 L81.4915254,36.4745763 C82.2413559,36.4745763 82.8474576,37.080678 82.8474576,37.8305085 C82.8474576,38.580339 82.2413559,39.1864407 81.4915254,39.1864407 Z" id="Shape" fill="#fbfcfe"></path>
            <path d="M110.05964,4.11372382 C105.193817,-1.37169325 97.3040026,-1.37169325 92.4381803,4.11372382 C87.572358,9.59914089 87.572358,18.4907877 92.4381803,23.9762048 L101.248139,33.9082159 L110.058098,23.9762048 C114.925462,18.492329 114.925462,9.59914089 110.05964,4.11372382 Z M101.628836,20.036692 C97.7987537,20.036692 94.6930736,16.9310119 94.6930736,13.10093 C94.6930736,9.27084815 97.7987537,6.16516808 101.628836,6.16516808 C105.458917,6.16516808 108.564598,9.27084815 108.564598,13.10093 C108.564598,16.9310119 105.458917,20.036692 101.628836,20.036692 Z" id="Shape" fill="#017ac8"></path>
            <path d="M34.8502625,30.7550454 C26.8772767,21.7483182 13.9508693,21.7483182 5.97973936,30.7550454 C-1.99324645,39.7617726 -1.99324645,54.364066 5.97973936,63.3689373 L20.4150009,79.6768112 L34.8502625,63.3689373 C42.8232483,54.3622101 42.8232483,39.7599167 34.8502625,30.7550454 Z M20.4150009,53.6940828 C15.2908357,53.6940828 11.135455,49.5387022 11.135455,44.4145369 C11.135455,39.2903717 15.2908357,35.1349911 20.4150009,35.1349911 C25.5391661,35.1349911 29.6945468,39.2903717 29.6945468,44.4145369 C29.6945468,49.5387022 25.5391661,53.6940828 20.4150009,53.6940828 Z" id="Shape" fill="#00ff00"></path>
        </g>
    </g>
</svg>
